<svg xmlns="http://www.w3.org/2000/svg" viewBox="0 0 2622.89 566.93"><defs><style>.cls-1{fill:#fedf32;}.cls-2{fill:none;}.cls-3{fill:#f9df53;}.cls-4{fill:#1d1d1b;stroke:#000;stroke-miterlimit:10;}</style></defs><g id="Layer_2" data-name="Layer 2"><g id="Layer_1-2" data-name="Layer 1"><g id="Layer_2-2" data-name="Layer 2"><g id="Layer_1-2-2" data-name="Layer 1-2"><g id="Layer_2-2-2" data-name="Layer 2-2"><g id="Layer_1-2-2-2" data-name="Layer 1-2-2"><g id="Layer_2-2-2-2" data-name="Layer 2-2-2"><g id="Layer_1-2-2-2-2" data-name="Layer 1-2-2-2"><path class="cls-1" d="M0,312.77q1.65-12.11,3.28-24.21L4.87,281q.8-7,1.58-14c.42-2.52.84-5,1.27-7.55Q9,249.28,10.32,239.1l1-4.22L27.06,99.16c8.87-1.42,17.73-4.06,26.59-4.07q336.8-.36,673.59-.21,393.93,0,787.85.17-15.15,109.43-30.29,218.85c-2.84.12-5.67.36-8.51.36q-730.56.06-1461.11,0C10.12,314.29,5.06,313.3,0,312.77Z"/><path class="cls-1" d="M872.92,79c-20.4-.47-40.79-1.34-61.21-1.35C553.39,77.52,289.37,79,31,79c-.37-14.58,3.81-12.25,22.63-11.43q145.14-.54,290.31-.48h26.79L589.52,67H715.79l6.46-.08,290.23-.09,78.36-.1,99.05.08h34l296.22.41c.12,3.34-2.23,8.43-2.11,11.76l-20.83-.45h-17.63L1429,78.44l-116.54.47-6.19-.1h-79.15l-33.48.12c-49.3-.46-98.59-1.31-147.89-1.29-55.52,0-111,.82-166.56,1.28Z"/><path class="cls-1" d="M7.69,259.47c-.43,2.52-.85,5-1.27,7.55C6.87,264.47,7.26,262,7.69,259.47Z"/><path class="cls-1" d="M4.87,281l-1.56,7.57Z"/><path class="cls-1" d="M11.34,235l-1,4.22Z"/><path class="cls-1" d="M1078.18,18.47c-2.52,0-5,0-7.57-.06C1073.13,18.47,1075.66,18.47,1078.18,18.47Z"/><line class="cls-2" x1="1521.39" y1="33.25" x2="1298.63" y2="33.25"/><path class="cls-1" d="M876.5,56c-20.45-.47-40.9-1.34-61.37-1.35-259-.1-521.28-.86-780.32-.86-.37-14.58,13.54-9.19,20.24-9.22Q200.57,44,346.12,44H719l6.48-.08,291-.09,78.56-.1,99.32.08h34.14l297,.41c.12,3.34-1.81,8.43-1.69,11.76l-21.31-.45h-17.68L1434,55.42l-116.85.47-6.21-.1h-79.36l-33.56.12c-49.43-.46-98.85-1.31-148.28-1.29-55.67,0-111.35.82-167,1.28Z"/><path class="cls-1" d="M881.36,33.25c-20.45-.47-40.9-1.34-61.37-1.35-259-.1-522.33,0-781.38,0-.37-14.58,14.6-10,21.3-10q145.51-.54,291.07-.48h26.86l219.37-.07h126.6l6.48-.08,291-.09,78.56-.1,99.32.08h34.14l297,.41c.12,3.34-2,8.43-1.9,11.76l-21.1-.45h-17.68l-50.76-.08L1322,33.19l-6.21-.1h-79.36l-33.56.12c-49.43-.46-98.85-1.31-148.28-1.29-55.67,0-111.35.82-167,1.28Z"/><path class="cls-1" d="M886.17,12.25c-20.45-.47-40.9-1.34-61.37-1.35-259-.1-522.34-.05-781.38-.05C43.05-3.73,58,.85,64.72.82Q210.24.28,355.79.34h26.86L602,.27H728.6l6.5-.08,291-.09,78.56-.1L1204,.08h34.14l297,.41c.12,3.34-2,8.43-1.91,11.76l-21.09-.45h-17.68l-50.76-.08-116.85.47-6.21-.1h-79.36l-33.56.12c-49.43-.46-98.85-1.31-148.28-1.29-55.67,0-111.35.82-167,1.28Z"/></g></g><polyline class="cls-3" points="1251.78 220.57 1231.04 221.91 1418.18 220.57 1429.56 211.64"/><path class="cls-1" d="M1932.2,566.93c-17.82-.47-35.64-1.34-53.48-1.35q-338.58-.15-677.2-.15c-.32-14.58,9-9.9,14.82-9.93q126.81-.5,253.66-.5h23.41l191.17-.07H1794.9l5.65-.08,253.59-.09,68.47-.1,86.55.08h29.75l258.83.41c.1,3.33.21,6.67.32,10l-20.37,1.31h-15.41l-44.23-.08-101.83.47-5.41-.1h-69.16l-29.25.12c-43.08-.46-86.14-1.31-129.22-1.29-48.51,0-97,.82-145.53,1.28Z"/></g></g><g id="Layer_2-3" data-name="Layer 2-3"><g id="Layer_1-2-3" data-name="Layer 1-2-3"><path class="cls-4" d="M2160.56,172.76c8.9,2,17.86,3.7,26.67,6.08,13.69,3.69,25.8,10.19,31.28,25.43a47.68,47.68,0,0,1,3,16.63c-.48,24.83-5.46,48-24.21,65-12.13,11-26.56,16.3-41.9,19.87-25.58,5.94-51.46,4.78-77.3,4.83q-111.07.22-222.16.14c-6.36,0-7.12-1-5.42-7q17.07-60.72,34.16-121.45c9.49-33.71,19.11-67.37,28.54-101.08,4.57-16.32,8.86-32.73,13.21-49.11,1.12-4.19,3.48-6.08,7.58-6,8.57.16,17.14,0,25.71,0,74.26,0,148.52-.27,222.78.25a146.49,146.49,0,0,1,39.2,5.68c17.52,5,30.23,15.13,30.66,40.61.32,18.23-1.16,36-8.71,52.56-10.08,22.07-28.26,32.42-49.45,37.75-8.48,2.15-17.31,3-25.93,4.6-2.68.51-5.24,1.74-7.84,2.64C2160.52,171,2160.54,171.89,2160.56,172.76ZM2040.7,195.89V195c-9.19,0-18.37-.06-27.56,0-8.27.08-10.75,2.05-13.17,10.6-3.14,11.1-6.15,22.24-9.18,33.36-2.12,7.72.24,11.15,7.9,11.16,19.78,0,39.56.47,59.34-.28a61.55,61.55,0,0,0,22.36-5.4c11.12-5,14.9-18.1,14.21-29.55-.64-10.39-7.32-17.28-19.72-18.69C2063.59,194.9,2052.1,195.89,2040.7,195.89Zm16.34-46.4.06,1.15c14-1.14,28.08-1.59,42-3.63,11.3-1.66,18.84-12.47,19.07-24.64.26-11.85-4.87-19.2-16.05-22.17a64.09,64.09,0,0,0-15-2.49c-16.11-.31-32.23-.09-48.34-.11-5.28,0-9,2.41-10.55,8-3.14,11.35-6.36,22.65-9.19,34.09-1.65,6.76.4,9.58,6.84,9.74,10.34.27,20.75.06,31.12.06Z"/><path class="cls-4" d="M2404.57,318.87c-52-.3-104-2.68-155.55-10.72-1.41-.22-2.82-.24-4.23-.4-6.36-.71-7.07-2-5.39-8.83,4.37-17.34,8.9-34.64,13-52.07,1.48-6.38,4.24-8.16,10.35-7.56,23.74,2.35,47.52,4.55,71.35,5.86q36.33,2,72.77,2c7.67,0,15.59-2.52,23-5.26,7.61-2.85,11.09-9.87,10.53-17.38-.59-7.9-4.51-13.62-13.2-14.57-19.83-2.15-39.78-3-59.68-4.41-13.43-.91-26.85-1.07-40.18-2.78a63.42,63.42,0,0,1-30.92-13.14c-10.75-8.31-16.84-19.25-17.51-33.66-1.42-29.65,4.79-57.25,19.82-82.1C2313.93,48.51,2335.3,32,2363,25.46c30.23-7.19,61.05-8.17,91.81-7.46,43.42,1,86.81,3.39,130.2,5.55,11,.54,21.91,2.52,32.81,3.74,4.55.51,5.29,2.9,4,7.23-6.35,21.28-12.42,42.66-19,63.87-4.19,13.58-4.48,13.25-18.13,12.26-32.54-2.35-65.07-5.4-97.65-6.35-19.59-.56-39.73-2.15-58.64,6a22.71,22.71,0,0,0-9.89,8.14c-6.51,10.31-.54,22.5,11.84,23.39,24.18,1.74,48.41,2.41,72.6,3.88,12.78.78,25.85.82,38.22,3.88,24.83,6.12,36.39,20.67,36.89,48.15.67,36.12-8.57,69-35,93.67-13,12.18-29.15,17.75-45.92,21.39-28.38,6.18-57.13,6.12-85.88,6.12Z"/><path class="cls-4" d="M1829.94,228.75c-3.48,13-6.61,24.78-9.78,36.53-3,10.91-6.11,21.77-8.85,32.75-1.13,4.51-3,7-7.54,7.94-56.22,11.2-112.93,14.69-169.94,12.15-18.69-.83-37.3-4-54.93-11.6-22.91-9.9-35-28.49-37.26-54.53-2.63-30.05,2.92-59.18,10.88-87.62a564.48,564.48,0,0,1,21.59-62.75c15.24-36.92,40.44-62.16,77.42-73.31,37.13-11.18,74.93-11.95,112.83-9.46,30.08,2,60.05,6.08,90,9.6,9.26,1.09,18.42,3.33,28.56,5.22-1.26,5.38-2.3,10.37-3.63,15.27-6.35,23.54-12.9,47-19.22,70.59-1.2,4.48-4.07,4.2-7.2,4-19.52-1.53-39-3.78-58.56-4.41-24.47-.82-48.93,0-72.71,7.69-35.52,11.44-52.22,44.09-49.76,79.05.87,12.38,7.4,21.7,18.9,26.7,20.77,9,42.46,8.44,63.91,6.61,22.07-1.9,43.95-6.25,65.92-9.46C1823.49,229.21,1826.41,229.08,1829.94,228.75Z"/><path class="cls-4" d="M1708.13,416.9c-.27-20.47-10.54-32.79-29.51-36.08-8.49-1.46-17-2.25-25.61-3l-3,.2a4.18,4.18,0,0,1-.93.14,57.18,57.18,0,0,1-7.52.11v.08c-7.94,0-15.93-.49-23.84.1-16.34,1.22-32.23,5-43.69,18.5-6,7.07-10.76,15.81-14.58,24.55-8.36,19-13.58,39-12.71,60.36.67,16.75,7.75,27.47,22.65,32.46,6.89,2.29,14.3,4,21.46,4,19.72-.13,39.51-.53,59.13-2.4,12.54-1.21,25.37-5.39,33.21-16.86A139.94,139.94,0,0,0,1708.13,416.9Zm-54,25.15c-1.22,11.32-4.78,24.57-12.51,36.14-6.87,10.26-28.17,12.73-36.64,4.13-7.3-7.37-6.5-17.19-4.17-26.28a144.94,144.94,0,0,1,9.36-25.27c7.17-15.24,25.3-15.85,36.13-9.83C1652.11,424.17,1654.36,430.1,1654.13,442.05Z"/><path class="cls-4" d="M1775,514.56c-16.52,0-33-.18-49.55.1-5,.09-6-1.71-4.76-6.59q14.3-54.63,28.42-109.32c1.09-4.22,2.12-8.47,2.83-12.78s3.21-6,6.84-6c31.2.07,62.41-.14,93.6.47,22.91.44,33.39,11.84,33.16,36.44-.23,25.91-7.51,50.23-19.15,72.58-9.1,17.5-25,24.48-43.09,25C1807.25,514.9,1791.13,514.55,1775,514.56Zm19.17-31.69c14.23.7,22.18-2.29,28-11.79,7-11.32,9.22-24.25,8.79-37.62a12,12,0,0,0-11.16-11.91c-6.67-.63-13.42-.43-20.14-.52-4.64-.07-6.92,2.85-8.07,7.37-3.11,12.24-6.29,24.45-9.46,36.67-4.09,15.87-3.3,17.06,12,17.8Z"/><path class="cls-4" d="M1522.55,514.4c-16.38,0-30.87-.93-45.22.3-10.73.92-16.39-3.65-20.73-13.36a223.65,223.65,0,0,0-13.48-25c-1.7-2.8-5.07-4.42-7.67-6.6-1.52,2.62-3.66,5.05-4.43,7.91-2.73,10.09-5.13,20.24-7.36,30.45-.94,4.29-2.83,6.49-7.07,6.48-13.24,0-26.48-.06-39.73.09-3.86,0-4.61-1.83-3.71-5.36q7.65-30.07,15.25-60.15c5.32-21.11,10.73-42.2,15.81-63.39,1-4.2,2.82-6,6.65-6,33.86.17,67.72.27,101.57.56a46.29,46.29,0,0,1,12.72,1.66c8.76,2.62,12.81,10,13.42,19.08.87,12.57-.23,25-5.94,36.47-5.42,10.92-14.13,16.59-25.19,18.47-3.61.63-7.3.68-10.93,1.12-7,.85-8.65,4.16-4.65,10.43,8.64,13.54,17.66,26.81,26.52,40.2C1519.52,509.49,1520.55,511.22,1522.55,514.4Zm-63.34-66.32V448c3.26,0,6.52-.11,9.77,0,6,.24,10.59-3,14.27-7.57a18.9,18.9,0,0,0,3.53-18.35c-2.22-6.84-7.83-7.82-13.38-8.2a111.82,111.82,0,0,0-18.3,0c-2.94.29-7.45,1.89-8.25,4.11a136.47,136.47,0,0,0-5.7,23.33c-.65,3.89,1.81,6.64,5.83,6.73s8.14,0,12.23,0Z"/><path class="cls-4" d="M2517.1,379.64c-15.52-1.19-31-2.28-46.56-3.38a3.49,3.49,0,0,1-.65.06h-4.39a26.67,26.67,0,0,1-5.2.45h0c-10,0-20.07-.77-30,.23-8.81.88-18.2,2-26,6-24,12.22-30,40.86-27.23,61.6.54,4.1,3.2,9.37,6.36,11.26a56.85,56.85,0,0,0,20.25,7.53c11.26,1.62,22.74,1.3,34.1,2.19,4.9.39,8.75,3.35,8.9,9,.17,6.12-3.64,9.82-8.82,11a55.63,55.63,0,0,1-15.16,1.49c-17.1-.89-34.19-2.24-51.27-3.5-3.16-.21-6.17-.82-7.18,3.78-1.5,6.83-3.13,13.62-4.84,20.4-1,3.78.68,5.33,3.83,5.85,5.22.85,10.42,2.21,15.67,2.42,23.41.94,46.83,2.1,70.25,2.06,12.32,0,24.67-1.71,35.89-8.71,14.91-9.3,22.66-39.85,18-55.91-2.13-7.3-6.44-12.72-13.5-13.61-11.08-1.38-22.3-1.53-33.44-2.45-5.63-.47-11.42-.77-16.77-2.47-6.51-2.08-7.67-10.62-2.22-15,2.46-2,5.92-3.63,8.91-3.6,20.33.23,40.69.56,61,1.74,5.9.37,8.07-1.47,9.26-7.2,1.6-7.7,3.65-15.27,5.77-22.84C2523.86,381.53,2523.31,380.11,2517.1,379.64Z"/><path class="cls-4" d="M1960.71,517.49c-10.88-1.26-22.48-2.06-33.91-4.16-18.07-3.31-29.49-16.36-23.47-38.89,8-30.1,15.38-60.41,22.91-90.67,1-4.15,3.25-5.67,7-5.63q20.21.06,40.39-.17c4.54-.06,5.16,2.28,4.11,6.31q-5.52,21.21-11,42.45c-3.61,14.13-7.26,28.25-10.68,42.44-1.54,6.39,1,12.78,5.58,15.43,5.76,3.34,15.38,2,20.22-2.28,6.68-5.94,7.77-14.74,9.93-22.75,6.93-25.61,13.26-51.42,20.17-77,.51-1.89,3.73-4.13,5.74-4.19,13.25-.43,26.51-.26,39.76-.36,4.34,0,5.87,1.65,4.58,6.48-8,30.5-16.31,61-24,91.72-5.55,22.13-19.17,34-39.45,37.37C1986.35,515.58,1973.89,516.18,1960.71,517.49Z"/><path class="cls-4" d="M1297.77,482.23c-9,0-18,.06-26.93,0-6-.06-10.06,2.27-11.49,9.19-1.23,6-3.34,11.73-4.72,17.66-1,4.17-3.12,5.63-7,5.57-12.84-.17-25.7-.22-38.55,0-4.74.08-5.65-1.76-4.45-6.38q15.55-60.82,30.86-121.72c1.27-5.05,3.53-6.83,8.62-6.79,30,.27,60-.07,90,.17a84.79,84.79,0,0,1,20.56,2.52c10.35,2.66,14.92,9.09,15.76,20.57,1.56,21.33-1.41,41.73-12.78,59.73-8.36,13.2-20.24,19.94-35.36,19.55-8.16-.2-16.33,0-24.5,0ZM1288.12,454h0c3.24,0,6.49-.12,9.74,0,14.75.67,21.26-14,20.67-25.1-.41-7.57-4.19-12.4-11.31-12.83a211.07,211.07,0,0,0-23.73-.07c-2.27.12-5.83,1.81-6.45,3.69a273.7,273.7,0,0,0-7.3,27c-1.07,4.81,1.6,7.34,6.19,7.32Z"/><path class="cls-4" d="M2191.6,478c-1.52,6.75-3.53,12.46-4,18.29-1,14-8.69,18.29-20.46,19.21-22.55,1.81-45,5.28-67.7,1.6s-32.23-15-30.68-40c1.26-20.44,6.59-40,13.31-59.18,9.46-27,28.38-38.84,53.76-41,21.9-1.83,43.62-.17,65.22,3.83.6.11,1.19.32,1.79.44,12.72,2.58,12.72,2.57,9.28,16-1.73,6.77-3.54,13.52-5,20.36-1.07,5.4-3.53,6.88-8.61,6.31-10.69-1.15-21.5-2.52-32.16-1.84s-21.63,1.89-30.52,9.63c-9.42,8.2-13.07,19.44-13,31.93,0,9.54,6.15,17.12,15.62,17.94,11.68,1,23.52.28,35.27-.29C2179.23,481,2184.57,479.33,2191.6,478Z"/><path class="cls-4" d="M2246.28,514.27c1.29-6,2.28-11.25,3.53-16.4,5.36-22.07,10.82-44.07,16.2-66.1,1.85-7.57-.27-10.65-7.7-10.8-6.71-.14-13.45-.16-20.17.15-4.79.22-6.35-1.71-5.12-6.65q3.58-13.92,7.07-27.87c1.2-4.83,3.68-7.05,8.71-7q55.93.42,111.88.29c4.51,0,6,1.21,4.58,6.16q-3.74,13.53-6.78,27.29c-1.26,5.55-3.87,8.2-9.42,7.87-7.12-.4-14.27-.12-21.41-.18-5.32,0-8.47,2-9.89,8.2-6.21,26.71-12.81,53.32-19.51,79.89-.51,2-2.92,4.92-4.5,5C2278.31,514.42,2262.89,514.27,2246.28,514.27Z"/></g></g></g></g></g></g></svg>